<svg height='100px' width='100px'  fill="#4d4d4d" xmlns="http://www.w3.org/2000/svg" xmlns:xlink="http://www.w3.org/1999/xlink" version="1.1" x="0px" y="0px" viewBox="0 0 100 100" enable-background="new 0 0 100 100" xml:space="preserve"><g><path d="M87.4750977,27.965332c-2.0605469-2.2011719-4.8422852-3.4316406-7.8330078-3.465332   c-0.0419922-0.0004883-0.0834961-0.0004883-0.1259766-0.0004883c-2.5979004,0-5.0498047,0.911438-7.0161133,2.5846558V11   c0-0.8286133-0.6713867-1.5-1.5-1.5H11c-0.8286133,0-1.5,0.6713867-1.5,1.5v78c0,0.8286133,0.6713867,1.5,1.5,1.5h60   c0.8286133,0,1.5-0.6713867,1.5-1.5V58.6134033l14.8017578-15.0841064C89.3642578,41.421875,90.5,38.6274414,90.5,35.6601563   C90.5,32.7822266,89.4257813,30.0493164,87.4750977,27.965332z M69.5,87.5h-57v-75h57v14.5795898   c-0.0098877-0.0084229-0.0206299-0.0154419-0.0305786-0.0238037c-0.0703735-0.0593872-0.1453247-0.1112061-0.2169189-0.1686401   c-0.1969604-0.15802-0.3956299-0.3128662-0.6015015-0.4558716c-0.1043701-0.0725098-0.2125854-0.1374512-0.3190918-0.2060547   c-0.180542-0.116333-0.3617554-0.2305298-0.5481567-0.3355103c-0.1191406-0.0670776-0.2406006-0.128418-0.3619385-0.1907959   c-0.1815186-0.0933838-0.3643188-0.1828613-0.5505371-0.265564c-0.1273193-0.0565796-0.2556152-0.1098633-0.3850708-0.161438   c-0.1882324-0.0749512-0.3783569-0.1436768-0.5706177-0.2078857c-0.1306763-0.0436401-0.2612305-0.086853-0.3936157-0.1254272   c-0.2003784-0.0584106-0.4031982-0.1077881-0.6072388-0.154541c-0.1282349-0.0294189-0.2553711-0.0614014-0.3848877-0.0861206   c-0.2250366-0.0429077-0.4529419-0.0736694-0.6815186-0.102417c-0.1116333-0.0140381-0.2217407-0.0336914-0.3341064-0.0442505   C63.1723633,24.519043,62.8277588,24.5,62.4799805,24.5c-2.9975586,0-5.8974609,1.2631836-7.9560547,3.4663086   c-4.1230469,4.4130859-4.046875,11.2490234,0.175293,15.5644531L69.5,58.6134033V87.5z M85.1591797,41.4291992   L71.0001831,55.8582153l-14.1578979-14.427063c-3.0957031-3.1645508-3.1513672-8.1791992-0.1259766-11.4169922   C58.2314453,28.3930664,60.2783203,27.5,62.4799805,27.5c2.1274414,0,4.1264648,0.8452148,5.6308594,2.3818359l1.8198242,1.8500977   c0.1381226,0.1405029,0.3034668,0.2369385,0.4772949,0.3123779c0.0135498,0.0054932,0.0266724,0.0095825,0.0404053,0.0147095   c0.3543091,0.1417847,0.7522583,0.1605835,1.1199951,0.0093384c0.1737671-0.071228,0.3203735-0.1802979,0.4519653-0.3043823   c0.0145264-0.0135498,0.0349731-0.0177612,0.0490112-0.0320435l1.8222656-1.8525391   c1.5273438-1.559082,3.5688477-2.3950195,5.7167969-2.3793945c2.1645508,0.0244141,4.1806641,0.9174805,5.6762695,2.5151367   C86.7133789,31.5415039,87.5,33.5463867,87.5,35.6601563C87.5,37.8383789,86.668457,39.8876953,85.1591797,41.4291992z"></path><path d="M35,77.5H20c-0.8286133,0-1.5,0.6713867-1.5,1.5s0.6713867,1.5,1.5,1.5h15c0.8286133,0,1.5-0.6713867,1.5-1.5   S35.8286133,77.5,35,77.5z"></path><path d="M35,65.5H20c-0.8286133,0-1.5,0.6713867-1.5,1.5s0.6713867,1.5,1.5,1.5h15c0.8286133,0,1.5-0.6713867,1.5-1.5   S35.8286133,65.5,35,65.5z"></path><path d="M35,71.5H20c-0.8286133,0-1.5,0.6713867-1.5,1.5s0.6713867,1.5,1.5,1.5h15c0.8286133,0,1.5-0.6713867,1.5-1.5   S35.8286133,71.5,35,71.5z"></path><path d="M20,39.5h22c0.8286133,0,1.5-0.6713867,1.5-1.5s-0.6713867-1.5-1.5-1.5H20c-0.8286133,0-1.5,0.6713867-1.5,1.5   S19.1713867,39.5,20,39.5z"></path><path d="M20,27.5h32c0.8286133,0,1.5-0.6713867,1.5-1.5s-0.6713867-1.5-1.5-1.5H20c-0.8286133,0-1.5,0.6713867-1.5,1.5   S19.1713867,27.5,20,27.5z"></path><path d="M20,33.5h22c0.8286133,0,1.5-0.6713867,1.5-1.5s-0.6713867-1.5-1.5-1.5H20c-0.8286133,0-1.5,0.6713867-1.5,1.5   S19.1713867,33.5,20,33.5z"></path><path d="M28,43.5c-4.6870117,0-8.5,3.8129883-8.5,8.5s3.8129883,8.5,8.5,8.5s8.5-3.8129883,8.5-8.5S32.6870117,43.5,28,43.5z    M28,57.5c-3.0327148,0-5.5-2.4672852-5.5-5.5s2.4672852-5.5,5.5-5.5s5.5,2.4672852,5.5,5.5S31.0327148,57.5,28,57.5z"></path><path d="M37.5,60v14v5c0,0.8286133,0.6713867,1.5,1.5,1.5h24c0.8286133,0,1.5-0.6713867,1.5-1.5v-5V60   c0-0.8286133-0.6713867-1.5-1.5-1.5H39C38.1713867,58.5,37.5,59.1713867,37.5,60z M40.5,61.5h21v11h-21V61.5z M40.5,75.5h21v2h-21   V75.5z"></path><path d="M48,22.5h17c0.8286133,0,1.5-0.6713867,1.5-1.5v-5c0-0.8286133-0.6713867-1.5-1.5-1.5H48   c-0.8286133,0-1.5,0.6713867-1.5,1.5v5C46.5,21.8286133,47.1713867,22.5,48,22.5z M49.5,17.5h14v2h-14V17.5z"></path></g></svg>